<svg width="18" height="16" viewBox="0 0 18 16" fill="none" xmlns="http://www.w3.org/2000/svg">
<path d="M17.8777 2.57422C17.7957 2.23731 17.4949 2 17.1483 2H13.9954C14.003 1.61084 14.0006 1.25953 13.9924 0.968031C13.9771 0.426031 13.5343 0 12.9922 0H5.00778C4.46569 0 4.02294 0.426031 4.00762 0.968031C3.99937 1.25953 3.997 1.61084 4.00456 2H0.851717C0.505061 2 0.20428 2.23731 0.122249 2.57422C0.0968737 2.68066 -0.491032 5.22463 1.15837 7.68456C2.3285 9.42897 4.30081 10.6542 7.01828 11.3523C7.60262 11.5024 8.00003 12.0466 8.00003 12.65C8.00003 13.3956 7.39559 14 6.65 14H6.50006C5.67162 14 5.00009 14.6716 5.00009 15.5C5.00009 15.7761 5.22397 16 5.50006 16H12.4999C12.776 16 12.9999 15.7761 12.9999 15.5C12.9999 14.6716 12.3284 14 11.4999 14H11.35C10.6044 14 9.99997 13.3956 9.99997 12.65C9.99997 12.0466 10.3974 11.5024 10.9817 11.3523C13.6992 10.6542 15.6715 9.42897 16.8416 7.68456C18.491 5.22463 17.9031 2.68066 17.8777 2.57422ZM2.41909 6.87012C1.54606 5.58203 1.4689 4.23925 1.51187 3.5H4.02519C4.19265 5.36303 4.66019 7.62378 5.82625 9.40819C4.29234 8.79981 3.15156 7.95141 2.41909 6.87012ZM11.5624 4.57116L10.4269 5.67431L10.695 7.23631C10.723 7.39966 10.5518 7.52406 10.4052 7.44703L9.00384 6.71044L7.60237 7.44703C7.45584 7.52406 7.28465 7.39966 7.31265 7.23631L7.58072 5.67431L6.44609 4.57203C6.32731 4.45653 6.3925 4.255 6.55637 4.23109L8.12684 4.00159L8.82781 2.58178C8.90112 2.43334 9.11278 2.43334 9.18603 2.58178L9.887 4.00159L11.4521 4.23022C11.616 4.25416 11.6812 4.45581 11.5624 4.57116ZM15.5809 6.87012C14.8484 7.95141 13.7077 8.79981 12.1737 9.40819C13.3398 7.62378 13.8073 5.36303 13.9748 3.5H16.4881C16.5311 4.24025 16.4539 5.583 15.5809 6.87012Z" fill="#0A0A0B"/>
</svg>
