<svg width="16" height="17" viewBox="0 0 16 17" fill="none" xmlns="http://www.w3.org/2000/svg">
<path d="M14 2.5H2C0.895437 2.5 0 3.39544 0 4.5V12.5C0 13.6046 0.895437 14.5 2 14.5H14C15.1046 14.5 16 13.6046 16 12.5V4.5C16 3.39544 15.1046 2.5 14 2.5ZM2 4H14C14.2757 4 14.5 4.22431 14.5 4.5V5.19256L9.28906 9.53566C8.56444 10.1382 7.43456 10.1377 6.71191 9.53613L1.5 5.19256V4.5C1.5 4.22431 1.72431 4 2 4ZM14 13H2C1.72431 13 1.5 12.7757 1.5 12.5V7.14569L5.75194 10.689C6.38281 11.2134 7.18066 11.5024 8 11.5024C8.81934 11.5024 9.61719 11.2134 10.249 10.6885L14.5 7.14575V12.5C14.5 12.7757 14.2757 13 14 13Z" fill="black"/>
</svg>
