<svg width="18" height="15" viewBox="0 0 18 15" fill="none" xmlns="http://www.w3.org/2000/svg">
<path d="M17.8916 6.96791C16.1963 3.11016 12.8418 0.5 9 0.5C5.15819 0.5 1.80275 3.11188 0.108406 6.96791C0.0488125 7.10631 0 7.34503 0 7.5C0 7.65553 0.0488125 7.89362 0.108406 8.03203C1.80372 11.8898 5.15819 14.5 9 14.5C12.8418 14.5 16.1973 11.8881 17.8916 8.03203C17.9512 7.89362 18 7.65491 18 7.5C18 7.34447 17.9512 7.10631 17.8916 6.96791ZM9 13C5.89128 13 3.02612 10.8907 1.51325 7.50012C3.03156 4.10516 5.89409 2 9 2C12.1088 2 14.9739 4.10931 16.4867 7.49981C14.9684 10.8948 12.1059 13 9 13ZM9 3.5C6.79169 3.5 5 5.29212 5 7.5C5 9.70788 6.79169 11.5 9 11.5H9.00178C11.2092 11.5 13 9.70875 13 7.50172V7.5C13 5.29212 11.2084 3.5 9 3.5ZM9 10C7.62153 10 6.5 8.87847 6.5 7.5C6.5 7.47662 6.50622 7.45497 6.50691 7.43175C6.66491 7.47266 6.82875 7.5 7 7.5C8.10456 7.5 9 6.60456 9 5.5C9 5.32875 8.97266 5.16491 8.93175 5.00691C8.95497 5.00622 8.97663 5 9 5C10.3785 5 11.5 6.12153 11.5 7.50172C11.5 8.87928 10.3793 10 9 10Z" fill="black"/>
</svg>
