<svg width="81" height="81" viewBox="0 0 81 81" fill="none" xmlns="http://www.w3.org/2000/svg">
<rect opacity="0.1" x="0.470703" y="0.655273" width="79.9995" height="80" rx="39.9997" fill="#FF8F6B"/>
<path d="M33.93 27.6665H31.3967C28.4767 27.6665 26.9434 29.1998 26.9434 32.1065V34.6398C26.9434 37.5465 28.4767 39.0798 31.3833 39.0798H33.9166C36.8233 39.0798 38.3566 37.5465 38.3566 34.6398V32.1065C38.37 29.1998 36.8366 27.6665 33.93 27.6665Z" fill="#FF8F6B"/>
<path opacity="0.4" d="M48.6237 27.6665H46.0904C43.1837 27.6665 41.6504 29.1998 41.6504 32.1065V34.6398C41.6504 37.5465 43.1837 39.0798 46.0904 39.0798H48.6237C51.5303 39.0798 53.0636 37.5465 53.0636 34.6398V32.1065C53.0636 29.1998 51.5303 27.6665 48.6237 27.6665Z" fill="#FF8F6B"/>
<path d="M48.6237 42.9067H46.0904C43.1837 42.9067 41.6504 44.4401 41.6504 47.3467V49.8801C41.6504 52.7867 43.1837 54.3201 46.0904 54.3201H48.6237C51.5303 54.3201 53.0636 52.7867 53.0636 49.8801V47.3467C53.0636 44.4401 51.5303 42.9067 48.6237 42.9067Z" fill="#FF8F6B"/>
<path opacity="0.4" d="M33.93 42.9067H31.3967C28.4767 42.9067 26.9434 44.4401 26.9434 47.3467V49.8801C26.9434 52.8001 28.4767 54.3334 31.3833 54.3334H33.9166C36.8233 54.3334 38.3566 52.8001 38.3566 49.8934V47.3601C38.37 44.4401 36.8366 42.9067 33.93 42.9067Z" fill="#FF8F6B"/>
</svg>
