<svg width="81" height="81" viewBox="0 0 81 81" fill="none" xmlns="http://www.w3.org/2000/svg">
<rect opacity="0.1" x="0.0625" y="0.655273" width="79.9995" height="80" rx="39.9997" fill="#5B93FF"/>
<path d="M52.4927 36.5866C52.4927 38.1733 52.2393 39.64 51.7993 41H26.5195C26.0795 39.64 25.8262 38.1733 25.8262 36.5866C25.8262 32.4666 29.1461 29.1333 33.2395 29.1333C35.6528 29.1333 37.8128 30.3066 39.1594 32.1066C40.5061 30.3066 42.6661 29.1333 45.0794 29.1333C49.1727 29.1333 52.4927 32.4666 52.4927 36.5866Z" fill="#605BFF"/>
<path opacity="0.4" d="M51.7994 41C49.6927 47.6667 43.1994 51.6533 39.9861 52.7467C39.5328 52.9067 38.7861 52.9067 38.3328 52.7467C35.1195 51.6533 28.6262 47.6667 26.5195 41H51.7994Z" fill="#605BFF"/>
</svg>
