<svg width="81" height="81" viewBox="0 0 81 81" fill="none" xmlns="http://www.w3.org/2000/svg">
<rect opacity="0.2" x="0.75" y="0.655273" width="79.9995" height="80" rx="39.9997" fill="#FFD66B"/>
<path d="M45.2158 41L41.6366 39.7437V31.7081H42.4899C44.4099 31.7081 45.9743 33.3911 45.9743 35.4533C45.9743 36.4252 46.7802 37.2311 47.7521 37.2311C48.7239 37.2311 49.5299 36.4252 49.5299 35.4533C49.5299 31.4237 46.3773 28.1526 42.4899 28.1526H41.6366V26.7778C41.6366 25.8059 40.8307 25 39.8588 25C38.887 25 38.081 25.8059 38.081 26.7778V28.1526H36.5403C33.0322 28.1526 30.1641 31.1156 30.1641 34.7422C30.1641 38.9852 32.6292 40.3363 34.5018 41L38.081 42.2563V50.2681H37.2277C35.3077 50.2681 33.7433 48.5852 33.7433 46.523C33.7433 45.5511 32.9374 44.7452 31.9655 44.7452C30.9937 44.7452 30.1878 45.5511 30.1878 46.523C30.1878 50.5526 33.3403 53.8237 37.2277 53.8237H38.081V55.2222C38.081 56.1941 38.887 57 39.8588 57C40.8307 57 41.6366 56.1941 41.6366 55.2222V53.8474H43.1773C46.6854 53.8474 49.5536 50.8844 49.5536 47.2578C49.5299 42.9911 47.0647 41.64 45.2158 41ZM35.687 37.6578C34.4781 37.2311 33.7433 36.8281 33.7433 34.7659C33.7433 33.083 34.9996 31.7319 36.564 31.7319H38.1048V38.5111L35.687 37.6578ZM43.1773 50.2919H41.6366V43.5126L44.0306 44.3422C45.2395 44.7689 45.9743 45.1719 45.9743 47.2341C45.9743 48.917 44.718 50.2919 43.1773 50.2919Z" fill="#FFC327"/>
</svg>
