<svg width="81" height="81" viewBox="0 0 81 81" fill="none" xmlns="http://www.w3.org/2000/svg">
<rect opacity="0.1" x="0.0625" y="0.655273" width="79.9995" height="80" rx="39.9997" fill="#5B93FF"/>
<path d="M48.0692 25H30.2511C27.4395 25 25.1602 26.7909 25.1602 29V53C25.1602 55.2091 27.4395 57 30.2511 57H48.0692C50.8809 57 53.1602 55.2091 53.1602 53V29C53.1602 26.7909 50.8809 25 48.0692 25ZM49.342 53C49.342 53.5514 48.771 54 48.0692 54H30.2511C29.5493 54 28.9783 53.5514 28.9783 53V29C28.9783 28.4486 29.5493 28 30.2511 28H48.0692C48.771 28 49.342 28.4486 49.342 29V53ZM39.1602 49.5C38.1059 49.5 37.2511 50.1715 37.2511 51C37.2511 51.8284 38.1059 52.5 39.1602 52.5C40.2145 52.5 41.0692 51.8284 41.0692 51C41.0692 50.1715 40.2145 49.5 39.1602 49.5Z" fill="#605BFF"/>
</svg>
