<svg width="81" height="81" viewBox="0 0 81 81" fill="none" xmlns="http://www.w3.org/2000/svg">
<rect opacity="0.1" x="0.470703" y="0.655273" width="79.9995" height="80" rx="39.9997" fill="#FF8F6B"/>
<path opacity="0.4" d="M50.9432 38.5865H47.0899C43.9299 38.5865 41.3566 36.0132 41.3566 32.8532V28.9998C41.3566 28.2665 40.7566 27.6665 40.0233 27.6665H34.37C30.2633 27.6665 26.9434 30.3332 26.9434 35.0932V46.9065C26.9434 51.6665 30.2633 54.3332 34.37 54.3332H44.8499C48.9565 54.3332 52.2765 51.6665 52.2765 46.9065V39.9198C52.2765 39.1865 51.6765 38.5865 50.9432 38.5865Z" fill="#FF8F6B"/>
<path d="M46.0851 27.9468C45.5385 27.4002 44.5918 27.7735 44.5918 28.5335V33.1868C44.5918 35.1335 46.2451 36.7468 48.2584 36.7468C49.5251 36.7602 51.2851 36.7602 52.7917 36.7602C53.5517 36.7602 53.9517 35.8668 53.4184 35.3335C51.4984 33.4002 48.0584 29.9202 46.0851 27.9468Z" fill="#FF8F6B"/>
<path d="M39.8628 44.6267C39.4761 44.24 38.8361 44.24 38.4495 44.6267L37.4895 45.5867V40C37.4895 39.4533 37.0361 39 36.4895 39C35.9428 39 35.4895 39.4533 35.4895 40V45.5867L34.5295 44.6267C34.1428 44.24 33.5028 44.24 33.1162 44.6267C32.7295 45.0133 32.7295 45.6533 33.1162 46.04L35.7828 48.7067C35.7962 48.72 35.8095 48.72 35.8095 48.7333C35.8895 48.8133 35.9962 48.88 36.1028 48.9333C36.2361 48.9733 36.3561 49 36.4895 49C36.6228 49 36.7428 48.9733 36.8628 48.92C36.9828 48.8667 37.0895 48.8 37.1961 48.7067L39.8628 46.04C40.2495 45.6533 40.2495 45.0133 39.8628 44.6267Z" fill="#FF8F6B"/>
</svg>
