<svg width="18" height="16" viewBox="0 0 18 16" fill="none" xmlns="http://www.w3.org/2000/svg">
<path d="M6.5 6C6.08594 6 5.75 6.33594 5.75 6.75V15.0635C5.75 15.4775 6.08594 15.8135 6.5 15.8135C6.91406 15.8135 7.25 15.4775 7.25 15.0635V6.75C7.25 6.33594 6.91406 6 6.5 6ZM1.5 11C1.08594 11 0.75 11.3359 0.75 11.75V15.25C0.75 15.6641 1.08594 16 1.5 16C1.91406 16 2.25 15.6641 2.25 15.25V11.75C2.25 11.3359 1.91406 11 1.5 11ZM16.5 0C15.6719 0 15 0.671875 15 1.5C15 1.57422 15.0117 1.64844 15.0234 1.72266L12.043 4.10547C11.875 4.03906 11.6914 4 11.5 4C11.3086 4 11.125 4.03906 10.957 4.10547L7.97656 1.72266C7.98828 1.64844 8 1.57422 8 1.5C8 0.671875 7.32812 0 6.5 0C5.67188 0 5 0.671875 5 1.5C5 1.63281 5.02344 1.76172 5.05469 1.88281L1.88281 5.05469C1.76172 5.02344 1.63281 5 1.5 5C0.671875 5 0 5.67188 0 6.5C0 7.32812 0.671875 8 1.5 8C2.32812 8 3 7.32812 3 6.5C3 6.36719 2.97656 6.23828 2.94531 6.11719L6.11719 2.94531C6.23828 2.97656 6.36719 3 6.5 3C6.69141 3 6.875 2.96094 7.04297 2.89453L10.0234 5.27734C10.0117 5.35156 10 5.42578 10 5.5C10 6.32812 10.6719 7 11.5 7C12.3281 7 13 6.32812 13 5.5C13 5.42578 12.9883 5.35156 12.9766 5.27734L15.957 2.89453C16.125 2.96094 16.3086 3 16.5 3C17.3281 3 18 2.32812 18 1.5C18 0.671875 17.3281 0 16.5 0ZM11.5 10C11.0859 10 10.75 10.3359 10.75 10.75V15.1025C10.75 15.5166 11.0859 15.8525 11.5 15.8525C11.9141 15.8525 12.25 15.5166 12.25 15.1025V10.75C12.25 10.3359 11.9141 10 11.5 10ZM16.5 6C16.0859 6 15.75 6.33594 15.75 6.75V15.2471C15.75 15.6611 16.0859 15.9971 16.5 15.9971C16.9141 15.9971 17.25 15.6611 17.25 15.2471V6.75C17.25 6.33594 16.9141 6 16.5 6Z" fill="#0A0A0B"/>
</svg>
