<svg width="18" height="16" viewBox="0 0 18 16" fill="none" xmlns="http://www.w3.org/2000/svg">
<path d="M0 4.5V11.5C0 12.3284 0.671562 13 1.5 13V3C0.671562 3 0 3.67163 0 4.5ZM3 3V13C3 13.8284 3.67156 14.5 4.5 14.5V1.5C3.67156 1.5 3 2.17163 3 3ZM16 0H8C6.89544 0 6 0.895375 6 2V14C6 15.1046 6.89544 16 8 16H16C17.1046 16 18 15.1046 18 14V2C18 0.895375 17.1046 0 16 0ZM16.5 14C16.5 14.2761 16.2761 14.5 16 14.5H8C7.72388 14.5 7.5 14.2761 7.5 14V2C7.5 1.72381 7.72388 1.5 8 1.5H16C16.2761 1.5 16.5 1.72381 16.5 2V14Z" fill="black"/>
</svg>
