<svg width="14" height="17" viewBox="0 0 14 17" fill="none" xmlns="http://www.w3.org/2000/svg">
<path d="M12 6.5H11V4.5C11 2.29444 9.20556 0.5 7 0.5C4.79444 0.5 3 2.29444 3 4.5V6.5H2C0.895437 6.5 0 7.39544 0 8.5V14.5C0 15.6046 0.895437 16.5 2 16.5H12C13.1046 16.5 14 15.6046 14 14.5V8.5C14 7.39544 13.1046 6.5 12 6.5ZM4.5 4.5C4.5 3.12159 5.62159 2 7 2C8.37841 2 9.5 3.12159 9.5 4.5V6.5H4.5V4.5ZM12.5 14.5C12.5 14.7757 12.2757 15 12 15H2C1.72431 15 1.5 14.7757 1.5 14.5V8.5C1.5 8.22431 1.72431 8 2 8H12C12.2757 8 12.5 8.22431 12.5 8.5V14.5Z" fill="black"/>
</svg>
